{
    "asset" : {
        "generator" : "Khronos glTF Blender I/O v3.4.49",
        "version" : "2.0"
    },
    "scene" : 0,
    "scenes" : [
        {
            "name" : "Scene",
            "nodes" : [
                0,
                1,
                3
            ]
        }
    ],
    "nodes" : [
        {
            "mesh" : 0,
            "name" : "Plane.011",
            "translation" : [
                3.266334533691406e-05,
                0.09505825489759445,
                0.0011589862406253815
            ]
        },
        {
            "mesh" : 1,
            "name" : "Plane.003",
            "translation" : [
                3.266334533691406e-05,
                0.09505825489759445,
                0.0011589862406253815
            ]
        },
        {
            "mesh" : 2,
            "name" : "Cylinder.000"
        },
        {
            "children" : [
                2
            ],
            "mesh" : 3,
            "name" : "Cylinder.001",
            "translation" : [
                -0.006259694695472717,
                0.03624388948082924,
                -0.0018892548978328705
            ]
        }
    ],
    "materials" : [
        {
            "doubleSided" : true,
            "name" : "Pumpkin",
            "pbrMetallicRoughness" : {
                "baseColorFactor" : [
                    0.5792533159255981,
                    0.28151142597198486,
                    0,
                    1
                ],
                "metallicFactor" : 0,
                "roughnessFactor" : 0.949999988079071
            }
        },
        {
            "doubleSided" : true,
            "name" : "Pumpkin_skin",
            "pbrMetallicRoughness" : {
                "baseColorFactor" : [
                    0.75,
                    0.18000000715255737,
                    0,
                    1
                ],
                "metallicFactor" : 0,
                "roughnessFactor" : 0.4000000059604645
            }
        },
        {
            "doubleSided" : true,
            "name" : "Pumpkin_stem",
            "pbrMetallicRoughness" : {
                "baseColorFactor" : [
                    0.027216700837016106,
                    0.03968191519379616,
                    0.0052769300527870655,
                    1
                ],
                "metallicFactor" : 0,
                "roughnessFactor" : 0.4000000059604645
            }
        },
        {
            "doubleSided" : true,
            "name" : "Lightbulb",
            "pbrMetallicRoughness" : {}
        },
        {
            "doubleSided" : true,
            "name" : "Plastic",
            "pbrMetallicRoughness" : {
                "baseColorFactor" : [
                    0.12252882868051529,
                    0.005076687783002853,
                    0.012675631791353226,
                    1
                ],
                "metallicFactor" : 0,
                "roughnessFactor" : 0.1599999964237213
            }
        }
    ],
    "meshes" : [
        {
            "name" : "Plane.009",
            "primitives" : [
                {
                    "attributes" : {
                        "COLOR_0" : 0,
                        "POSITION" : 1,
                        "TEXCOORD_0" : 2,
                        "NORMAL" : 3
                    },
                    "indices" : 4,
                    "material" : 0
                },
                {
                    "attributes" : {
                        "COLOR_0" : 5,
                        "POSITION" : 6,
                        "TEXCOORD_0" : 7,
                        "NORMAL" : 8
                    },
                    "indices" : 9,
                    "material" : 1
                }
            ]
        },
        {
            "name" : "Plane.1368",
            "primitives" : [
                {
                    "attributes" : {
                        "COLOR_0" : 10,
                        "POSITION" : 11,
                        "TEXCOORD_0" : 12,
                        "NORMAL" : 13
                    },
                    "indices" : 14,
                    "material" : 0
                },
                {
                    "attributes" : {
                        "COLOR_0" : 15,
                        "POSITION" : 16,
                        "TEXCOORD_0" : 17,
                        "NORMAL" : 18
                    },
                    "indices" : 19,
                    "material" : 2
                },
                {
                    "attributes" : {
                        "COLOR_0" : 20,
                        "POSITION" : 21,
                        "TEXCOORD_0" : 22,
                        "NORMAL" : 23
                    },
                    "indices" : 24,
                    "material" : 1
                }
            ]
        },
        {
            "name" : "Cylinder.005",
            "primitives" : [
                {
                    "attributes" : {
                        "POSITION" : 25,
                        "TEXCOORD_0" : 26,
                        "NORMAL" : 27
                    },
                    "indices" : 28,
                    "material" : 3
                }
            ]
        },
        {
            "name" : "Cylinder.001",
            "primitives" : [
                {
                    "attributes" : {
                        "POSITION" : 29,
                        "TEXCOORD_0" : 30,
                        "NORMAL" : 31
                    },
                    "indices" : 32,
                    "material" : 4
                }
            ]
        }
    ],
    "accessors" : [
        {
            "bufferView" : 0,
            "componentType" : 5123,
            "count" : 12152,
            "normalized" : true,
            "type" : "VEC4"
        },
        {
            "bufferView" : 1,
            "componentType" : 5126,
            "count" : 12152,
            "max" : [
                0.11842205375432968,
                0.07775469869375229,
                0.10618951916694641
            ],
            "min" : [
                -0.10039986670017242,
                -0.0869022086262703,
                -0.09492813050746918
            ],
            "type" : "VEC3"
        },
        {
            "bufferView" : 2,
            "componentType" : 5126,
            "count" : 12152,
            "type" : "VEC2"
        },
        {
            "bufferView" : 3,
            "componentType" : 5126,
            "count" : 12152,
            "type" : "VEC3"
        },
        {
            "bufferView" : 4,
            "componentType" : 5123,
            "count" : 66678,
            "type" : "SCALAR"
        },
        {
            "bufferView" : 5,
            "componentType" : 5123,
            "count" : 10828,
            "normalized" : true,
            "type" : "VEC4"
        },
        {
            "bufferView" : 6,
            "componentType" : 5126,
            "count" : 10828,
            "max" : [
                0.11933266371488571,
                0.07929004728794098,
                0.12587955594062805
            ],
            "min" : [
                -0.125381201505661,
                -0.09428681433200836,
                -0.11457936465740204
            ],
            "type" : "VEC3"
        },
        {
            "bufferView" : 7,
            "componentType" : 5126,
            "count" : 10828,
            "type" : "VEC2"
        },
        {
            "bufferView" : 8,
            "componentType" : 5126,
            "count" : 10828,
            "type" : "VEC3"
        },
        {
            "bufferView" : 9,
            "componentType" : 5123,
            "count" : 59478,
            "type" : "SCALAR"
        },
        {
            "bufferView" : 10,
            "componentType" : 5123,
            "count" : 2868,
            "normalized" : true,
            "type" : "VEC4"
        },
        {
            "bufferView" : 11,
            "componentType" : 5126,
            "count" : 2868,
            "max" : [
                0.04668372496962547,
                0.07781421393156052,
                0.05140054225921631
            ],
            "min" : [
                -0.05175083875656128,
                0.0456492155790329,
                -0.05352611839771271
            ],
            "type" : "VEC3"
        },
        {
            "bufferView" : 12,
            "componentType" : 5126,
            "count" : 2868,
            "type" : "VEC2"
        },
        {
            "bufferView" : 13,
            "componentType" : 5126,
            "count" : 2868,
            "type" : "VEC3"
        },
        {
            "bufferView" : 14,
            "componentType" : 5123,
            "count" : 15900,
            "type" : "SCALAR"
        },
        {
            "bufferView" : 15,
            "componentType" : 5123,
            "count" : 4803,
            "normalized" : true,
            "type" : "VEC4"
        },
        {
            "bufferView" : 16,
            "componentType" : 5126,
            "count" : 4803,
            "max" : [
                0.021804828196763992,
                0.12605848908424377,
                0.020551307126879692
            ],
            "min" : [
                -0.02012404054403305,
                0.051474735140800476,
                -0.022665344178676605
            ],
            "type" : "VEC3"
        },
        {
            "bufferView" : 17,
            "componentType" : 5126,
            "count" : 4803,
            "type" : "VEC2"
        },
        {
            "bufferView" : 18,
            "componentType" : 5126,
            "count" : 4803,
            "type" : "VEC3"
        },
        {
            "bufferView" : 19,
            "componentType" : 5123,
            "count" : 27600,
            "type" : "SCALAR"
        },
        {
            "bufferView" : 20,
            "componentType" : 5123,
            "count" : 2724,
            "normalized" : true,
            "type" : "VEC4"
        },
        {
            "bufferView" : 21,
            "componentType" : 5126,
            "count" : 2724,
            "max" : [
                0.04668372496962547,
                0.07806695997714996,
                0.05140054225921631
            ],
            "min" : [
                -0.05175083875656128,
                0.05364858731627464,
                -0.05352611839771271
            ],
            "type" : "VEC3"
        },
        {
            "bufferView" : 22,
            "componentType" : 5126,
            "count" : 2724,
            "type" : "VEC2"
        },
        {
            "bufferView" : 23,
            "componentType" : 5126,
            "count" : 2724,
            "type" : "VEC3"
        },
        {
            "bufferView" : 24,
            "componentType" : 5123,
            "count" : 15048,
            "type" : "SCALAR"
        },
        {
            "bufferView" : 25,
            "componentType" : 5126,
            "count" : 759,
            "max" : [
                0.006232443265616894,
                0.03220218047499657,
                0.006237552035599947
            ],
            "min" : [
                -0.006232517305761576,
                0.001698334701359272,
                -0.006227411329746246
            ],
            "type" : "VEC3"
        },
        {
            "bufferView" : 26,
            "componentType" : 5126,
            "count" : 759,
            "type" : "VEC2"
        },
        {
            "bufferView" : 27,
            "componentType" : 5126,
            "count" : 759,
            "type" : "VEC3"
        },
        {
            "bufferView" : 28,
            "componentType" : 5123,
            "count" : 4224,
            "type" : "SCALAR"
        },
        {
            "bufferView" : 29,
            "componentType" : 5126,
            "count" : 718,
            "max" : [
                0.022622963413596153,
                0.01163957454264164,
                0.022622939199209213
            ],
            "min" : [
                -0.022623060271143913,
                -0.011520560830831528,
                -0.0226230900734663
            ],
            "type" : "VEC3"
        },
        {
            "bufferView" : 30,
            "componentType" : 5126,
            "count" : 718,
            "type" : "VEC2"
        },
        {
            "bufferView" : 31,
            "componentType" : 5126,
            "count" : 718,
            "type" : "VEC3"
        },
        {
            "bufferView" : 32,
            "componentType" : 5123,
            "count" : 3648,
            "type" : "SCALAR"
        }
    ],
    "bufferViews" : [
        {
            "buffer" : 0,
            "byteLength" : 97216,
            "byteOffset" : 0,
            "target" : 34962
        },
        {
            "buffer" : 0,
            "byteLength" : 145824,
            "byteOffset" : 97216,
            "target" : 34962
        },
        {
            "buffer" : 0,
            "byteLength" : 97216,
            "byteOffset" : 243040,
            "target" : 34962
        },
        {
            "buffer" : 0,
            "byteLength" : 145824,
            "byteOffset" : 340256,
            "target" : 34962
        },
        {
            "buffer" : 0,
            "byteLength" : 133356,
            "byteOffset" : 486080,
            "target" : 34963
        },
        {
            "buffer" : 0,
            "byteLength" : 86624,
            "byteOffset" : 619436,
            "target" : 34962
        },
        {
            "buffer" : 0,
            "byteLength" : 129936,
            "byteOffset" : 706060,
            "target" : 34962
        },
        {
            "buffer" : 0,
            "byteLength" : 86624,
            "byteOffset" : 835996,
            "target" : 34962
        },
        {
            "buffer" : 0,
            "byteLength" : 129936,
            "byteOffset" : 922620,
            "target" : 34962
        },
        {
            "buffer" : 0,
            "byteLength" : 118956,
            "byteOffset" : 1052556,
            "target" : 34963
        },
        {
            "buffer" : 0,
            "byteLength" : 22944,
            "byteOffset" : 1171512,
            "target" : 34962
        },
        {
            "buffer" : 0,
            "byteLength" : 34416,
            "byteOffset" : 1194456,
            "target" : 34962
        },
        {
            "buffer" : 0,
            "byteLength" : 22944,
            "byteOffset" : 1228872,
            "target" : 34962
        },
        {
            "buffer" : 0,
            "byteLength" : 34416,
            "byteOffset" : 1251816,
            "target" : 34962
        },
        {
            "buffer" : 0,
            "byteLength" : 31800,
            "byteOffset" : 1286232,
            "target" : 34963
        },
        {
            "buffer" : 0,
            "byteLength" : 38424,
            "byteOffset" : 1318032,
            "target" : 34962
        },
        {
            "buffer" : 0,
            "byteLength" : 57636,
            "byteOffset" : 1356456,
            "target" : 34962
        },
        {
            "buffer" : 0,
            "byteLength" : 38424,
            "byteOffset" : 1414092,
            "target" : 34962
        },
        {
            "buffer" : 0,
            "byteLength" : 57636,
            "byteOffset" : 1452516,
            "target" : 34962
        },
        {
            "buffer" : 0,
            "byteLength" : 55200,
            "byteOffset" : 1510152,
            "target" : 34963
        },
        {
            "buffer" : 0,
            "byteLength" : 21792,
            "byteOffset" : 1565352,
            "target" : 34962
        },
        {
            "buffer" : 0,
            "byteLength" : 32688,
            "byteOffset" : 1587144,
            "target" : 34962
        },
        {
            "buffer" : 0,
            "byteLength" : 21792,
            "byteOffset" : 1619832,
            "target" : 34962
        },
        {
            "buffer" : 0,
            "byteLength" : 32688,
            "byteOffset" : 1641624,
            "target" : 34962
        },
        {
            "buffer" : 0,
            "byteLength" : 30096,
            "byteOffset" : 1674312,
            "target" : 34963
        },
        {
            "buffer" : 0,
            "byteLength" : 9108,
            "byteOffset" : 1704408,
            "target" : 34962
        },
        {
            "buffer" : 0,
            "byteLength" : 6072,
            "byteOffset" : 1713516,
            "target" : 34962
        },
        {
            "buffer" : 0,
            "byteLength" : 9108,
            "byteOffset" : 1719588,
            "target" : 34962
        },
        {
            "buffer" : 0,
            "byteLength" : 8448,
            "byteOffset" : 1728696,
            "target" : 34963
        },
        {
            "buffer" : 0,
            "byteLength" : 8616,
            "byteOffset" : 1737144,
            "target" : 34962
        },
        {
            "buffer" : 0,
            "byteLength" : 5744,
            "byteOffset" : 1745760,
            "target" : 34962
        },
        {
            "buffer" : 0,
            "byteLength" : 8616,
            "byteOffset" : 1751504,
            "target" : 34962
        },
        {
            "buffer" : 0,
            "byteLength" : 7296,
            "byteOffset" : 1760120,
            "target" : 34963
        }
    ],
    "buffers" : [
        {
            "byteLength" : 1767416,
            "uri" : "data:application/octet-stream;base64,"
        }
    ]
}
